<?xml version="1.0" encoding="UTF-8"?>
<svg id="Layer_1" data-name="Layer 1" xmlns="http://www.w3.org/2000/svg" viewBox="0 0 948.96 334.08">
  <defs>
    <style>
      .cls-1 {
        fill: #fff;
      }
    </style>
  </defs>
  <path class="cls-1" d="M200.35,129.07v75.94c0,9.21-4.91,17.71-12.89,22.32l-65.78,37.96c-7.97,4.6-17.79,4.6-25.76,0l-6.93-4c-2.54-1.47-2.92-4.97-.75-6.96,39.19-35.98,66.31-84.88,74.62-139.94,.16-1.04-1.22-1.57-1.79-.68-24.48,38.62-78.97,52.91-94.16,56.09-.96,.2-1.03,1.52-.11,1.85,14.19,4.98,24.34,18.49,24.34,34.37,0,17.6-12.46,32.28-29.05,35.68-3.37,.69-6.88,.08-9.87-1.64l-22.06-12.73c-7.98-4.6-12.89-13.11-12.89-22.32v-75.94c0-9.2,4.91-17.71,12.88-22.31l65.76-37.97c7.97-4.6,17.79-4.6,25.77,0l65.78,37.97c7.97,4.6,12.88,13.11,12.88,22.31Z"/>
  <g>
    <path class="cls-1" d="M284.19,166.01h21.2c-.08,4.22-.98,7.93-2.76,11.09-1.86,3.31-4.51,5.87-7.94,7.67-3.43,1.8-7.49,2.7-12.17,2.7-5.16,0-9.69-1.25-13.59-3.76-3.9-2.5-6.94-6.17-9.13-11-2.19-4.83-3.28-10.72-3.28-17.68s1.1-12.75,3.31-17.57c2.2-4.81,5.24-8.46,9.11-10.95,3.87-2.49,8.28-3.73,13.23-3.73,2.76,0,5.31,.35,7.65,1.06,2.34,.7,4.42,1.75,6.23,3.13,1.81,1.38,3.37,3.04,4.68,4.97,1.3,1.93,2.33,4.12,3.08,6.55h17.01c-.69-4.53-2.14-8.67-4.36-12.42-2.22-3.75-5.05-6.99-8.48-9.72-3.43-2.73-7.36-4.84-11.76-6.32-4.41-1.48-9.16-2.23-14.26-2.23-6.03,0-11.61,1.07-16.74,3.22-5.13,2.14-9.6,5.26-13.41,9.36-3.81,4.09-6.77,9.06-8.88,14.91-2.12,5.85-3.17,12.49-3.17,19.93,0,9.72,1.79,18.11,5.38,25.17,3.58,7.06,8.58,12.51,14.98,16.33,6.4,3.82,13.85,5.74,22.34,5.74,7.62,0,14.37-1.55,20.24-4.66s10.5-7.54,13.86-13.29c3.36-5.76,5.04-12.58,5.04-20.47v-11.07h-37.38v13.05Z"/>
    <path class="cls-1" d="M380.71,135.64c-4.95-2.97-10.8-4.45-17.55-4.45s-12.6,1.48-17.54,4.45c-4.95,2.97-8.78,7.14-11.49,12.51-2.71,5.37-4.07,11.62-4.07,18.76s1.36,13.38,4.07,18.71c2.72,5.34,6.55,9.49,11.49,12.46,4.95,2.97,10.8,4.45,17.54,4.45s12.6-1.48,17.55-4.45c4.95-2.97,8.78-7.12,11.49-12.46,2.71-5.34,4.07-11.58,4.07-18.71s-1.36-13.39-4.07-18.76c-2.72-5.37-6.55-9.54-11.49-12.51Zm-2.77,42.65c-1.21,3.42-3.05,6.14-5.51,8.16-2.46,2.02-5.52,3.04-9.18,3.04s-6.86-1.01-9.34-3.04c-2.47-2.02-4.32-4.75-5.53-8.16-1.21-3.42-1.82-7.23-1.82-11.43s.61-8.06,1.82-11.49c1.21-3.43,3.06-6.17,5.53-8.21,2.47-2.04,5.59-3.06,9.34-3.06s6.72,1.02,9.18,3.06c2.46,2.04,4.3,4.78,5.51,8.21,1.21,3.43,1.82,7.27,1.82,11.49s-.61,8.01-1.82,11.43Z"/>
    <path class="cls-1" d="M496.55,136.2c-2.73-1.78-5.74-3.07-9.04-3.85-3.3-.78-6.61-1.17-9.94-1.17-4.83,0-9.24,.71-13.23,2.14-3.99,1.43-7.36,3.55-10.12,6.39-2.76,2.83-4.74,6.35-5.94,10.55l15.21,2.16c.81-2.37,2.38-4.42,4.7-6.16,2.32-1.74,5.48-2.61,9.47-2.61,3.78,0,6.67,.93,8.68,2.79,2.01,1.86,3.01,4.48,3.01,7.87v.27c0,1.56-.58,2.71-1.73,3.44-1.15,.74-2.99,1.28-5.51,1.62-2.52,.34-5.8,.73-9.85,1.15-3.36,.36-6.61,.94-9.74,1.73-3.13,.8-5.95,1.96-8.44,3.49-2.49,1.53-4.45,3.57-5.89,6.12-1.44,2.55-2.16,5.77-2.16,9.67,0,4.53,1.01,8.34,3.04,11.43,2.02,3.09,4.78,5.42,8.28,7,3.49,1.57,7.43,2.36,11.81,2.36,3.6,0,6.74-.5,9.43-1.51,2.68-1,4.92-2.34,6.7-4,1.78-1.66,3.17-3.46,4.16-5.38h.54v9.49h15.66v-46.25c0-4.59-.83-8.41-2.5-11.47-1.66-3.06-3.86-5.48-6.59-7.27Zm-7.15,40.2c0,2.55-.65,4.9-1.96,7.06-1.3,2.16-3.16,3.89-5.56,5.2-2.4,1.3-5.23,1.96-8.5,1.96s-6.18-.76-8.37-2.29c-2.19-1.53-3.28-3.79-3.28-6.79,0-2.1,.55-3.82,1.67-5.15,1.11-1.33,2.62-2.38,4.54-3.13,1.92-.75,4.09-1.29,6.52-1.62,1.08-.15,2.35-.33,3.82-.54,1.47-.21,2.95-.45,4.45-.72,1.5-.27,2.86-.58,4.07-.94,1.21-.36,2.08-.75,2.59-1.17v8.14Z"/>
    <path class="cls-1" d="M558.63,166.01h21.2c-.08,4.22-.98,7.93-2.76,11.09-1.86,3.31-4.51,5.87-7.94,7.67-3.43,1.8-7.49,2.7-12.17,2.7-5.16,0-9.69-1.25-13.59-3.76-3.9-2.5-6.94-6.17-9.13-11-2.19-4.83-3.28-10.72-3.28-17.68s1.1-12.75,3.31-17.57c2.2-4.81,5.24-8.46,9.11-10.95,3.87-2.49,8.28-3.73,13.23-3.73,2.76,0,5.31,.35,7.65,1.06,2.34,.7,4.42,1.75,6.23,3.13,1.81,1.38,3.37,3.04,4.68,4.97,1.3,1.93,2.33,4.12,3.08,6.55h17.01c-.69-4.53-2.14-8.67-4.36-12.42-2.22-3.75-5.05-6.99-8.48-9.72-3.43-2.73-7.36-4.84-11.76-6.32-4.41-1.48-9.16-2.23-14.26-2.23-6.03,0-11.61,1.07-16.74,3.22-5.13,2.14-9.6,5.26-13.41,9.36-3.81,4.09-6.77,9.06-8.88,14.91-2.12,5.85-3.17,12.49-3.17,19.93,0,9.72,1.79,18.11,5.38,25.17,3.58,7.06,8.58,12.51,14.98,16.33,6.4,3.82,13.85,5.74,22.34,5.74,7.62,0,14.37-1.55,20.24-4.66s10.5-7.54,13.86-13.29c3.36-5.76,5.04-12.58,5.04-20.47v-11.07h-37.38v13.05Z"/>
    <path class="cls-1" d="M648.63,172.13c0,3.51-.73,6.43-2.18,8.75-1.46,2.32-3.31,4.07-5.55,5.24-2.25,1.17-4.57,1.75-6.97,1.75-3.9,0-7.05-1.29-9.45-3.87-2.4-2.58-3.6-6.06-3.6-10.44v-41.48h-16.29v44c0,5.52,.97,10.22,2.92,14.1,1.95,3.88,4.66,6.84,8.12,8.86,3.46,2.02,7.46,3.04,11.99,3.04,5.19,0,9.56-1.23,13.11-3.69,3.55-2.46,6.11-5.62,7.67-9.49h.72v12.28h15.79v-69.1h-16.29v40.04Z"/>
    <path class="cls-1" d="M705.7,184.27h-.72l-15.93-52.18h-17.28l25.06,70.54-1.4,3.73c-.99,2.61-2.2,4.48-3.62,5.6-1.43,1.13-3.07,1.7-4.93,1.73-1.86,.03-3.98-.3-6.34-.99l-3.78,12.69c1.11,.45,2.6,.85,4.48,1.19,1.87,.34,3.92,.52,6.14,.52,4.26,0,7.92-.7,11-2.09,3.08-1.39,5.68-3.4,7.8-6.03,2.13-2.62,3.84-5.77,5.13-9.43l27.67-77.47h-17.32l-15.97,52.18Z"/>
    <g>
      <polygon class="cls-1" points="824.78 171.86 823.97 171.86 780.61 109.05 765.67 109.05 765.67 201.19 782.36 201.19 782.36 138.43 783.13 138.43 826.54 201.19 841.38 201.19 841.38 109.05 824.78 109.05 824.78 171.86"/>
      <path class="cls-1" d="M894.3,152.96v13.05h21.2c-.08,4.22-.98,7.93-2.76,11.09-1.86,3.31-4.51,5.87-7.94,7.67-3.43,1.8-7.49,2.7-12.17,2.7-5.16,0-9.69-1.25-13.59-3.76-3.9-2.5-6.94-6.17-9.13-11-2.19-4.83-3.28-10.72-3.28-17.68s1.1-12.75,3.31-17.57c2.2-4.81,5.24-8.46,9.11-10.95,3.87-2.49,8.28-3.73,13.23-3.73,2.76,0,5.31,.35,7.65,1.06,2.34,.7,4.42,1.75,6.23,3.13,1.81,1.38,3.37,3.04,4.68,4.97,1.3,1.93,2.33,4.12,3.08,6.55h17.01c-.69-4.53-2.14-8.67-4.36-12.42-2.22-3.75-5.05-6.99-8.48-9.72-3.43-2.73-7.36-4.84-11.76-6.32-4.41-1.48-9.16-2.23-14.26-2.23-6.03,0-11.61,1.07-16.74,3.22-5.13,2.14-9.6,5.26-13.41,9.36-3.81,4.09-6.77,9.06-8.88,14.91-2.12,5.85-3.17,12.49-3.17,19.93,0,9.72,1.79,18.11,5.38,25.17,3.58,7.06,8.58,12.51,14.98,16.33,6.4,3.82,13.85,5.74,22.34,5.74,7.62,0,14.37-1.55,20.24-4.66,5.88-3.1,10.5-7.54,13.86-13.29,3.36-5.76,5.04-12.58,5.04-20.47v-11.07h-37.38Z"/>
    </g>
    <path class="cls-1" d="M441.71,132.09v12.6h-14.3v56.49h-16.33v-56.49h-10.22v-12.6h10.22v-6.53c0-4.63,.97-8.51,2.9-11.6,1.95-3.09,4.54-5.39,7.8-6.92,3.28-1.54,6.9-2.3,10.89-2.3,2.82,0,5.33,.23,7.52,.68,.55,.11,1.05,.23,1.51,.32v13.45c-.68-.19-1.5-.4-2.51-.61-1.05-.23-2.2-.34-3.51-.34-3.02,0-5.17,.72-6.4,2.17-1.24,1.46-1.87,3.54-1.87,6.24v5.44h14.3Z"/>
  </g>
</svg>